<?xml version="1.0" standalone="no"?>
<!DOCTYPE svg PUBLIC "-//W3C//DTD SVG 20010904//EN"
 "http://www.w3.org/TR/2001/REC-SVG-20010904/DTD/svg10.dtd">
<svg version="1.0" xmlns="http://www.w3.org/2000/svg"
 width="1335.000000pt" height="1335.000000pt" viewBox="0 0 1335.000000 1335.000000"
 preserveAspectRatio="xMidYMid meet">
<metadata>
Created by potrace 1.15, written by Peter Selinger 2001-2017
</metadata>
<g transform="translate(0.000000,1335.000000) scale(0.100000,-0.100000)"
fill="#000000" stroke="none">
<path d="M0 12850 l0 -500 635 0 635 0 0 60 0 60 210 0 210 0 0 440 0 440
-845 0 -845 0 0 -500z"/>
<path d="M1790 12910 l0 -440 155 0 155 0 0 440 0 440 -155 0 -155 0 0 -440z"/>
<path d="M2190 12910 l0 -440 150 0 150 0 0 440 0 440 -150 0 -150 0 0 -440z"/>
<path d="M2700 12910 l0 -440 95 0 95 0 0 440 0 440 -95 0 -95 0 0 -440z"/>
<path d="M3030 12910 l0 -440 220 0 220 0 0 -280 0 -280 1595 0 c1057 0 1595
3 1595 10 0 6 72 10 195 10 l195 0 0 235 0 235 -656 0 -656 0 6 -27 c22 -99
-92 -201 -193 -173 -48 13 -106 74 -115 121 -20 107 88 207 194 179 21 -6 42
-15 45 -20 4 -6 258 -10 691 -10 l684 0 0 440 0 440 -2010 0 -2010 0 0 -440z"/>
<path d="M7160 12735 l0 -615 1000 0 1000 0 0 40 0 40 630 0 630 0 0 575 0
575 -1630 0 -1630 0 0 -615z"/>
<path d="M10500 12775 l0 -575 120 0 120 0 0 575 0 575 -120 0 -120 0 0 -575z"/>
<path d="M10880 12775 l0 -575 500 0 500 0 0 -25 0 -25 480 0 480 0 0 600 0
600 -980 0 -980 0 0 -575z"/>
<path d="M12860 12750 l0 -600 80 0 80 0 0 60 0 60 165 0 165 0 0 540 0 540
-245 0 -245 0 0 -600z"/>
<path d="M0 12135 l0 -45 635 0 635 0 0 45 0 45 -635 0 -635 0 0 -45z"/>
<path d="M7160 11070 l0 -960 95 0 95 0 0 -125 0 -125 540 0 540 0 0 -55 0
-55 -45 0 -45 0 0 -540 0 -540 515 0 515 0 0 1485 0 1485 -105 0 -105 0 0 195
0 195 -1000 0 -1000 0 0 -960z"/>
<path d="M0 11860 l0 -140 635 0 635 0 0 140 0 140 -635 0 -635 0 0 -140z"/>
<path d="M11880 11935 l0 -45 480 0 480 0 0 45 0 45 -480 0 -480 0 0 -45z"/>
<path d="M5113 11793 l-1643 -3 0 -50 0 -50 1650 0 1650 0 0 -55 0 -55 -1650
0 -1650 0 0 -440 0 -440 732 0 c721 0 732 0 775 21 70 34 148 0 173 -76 32
-97 -76 -193 -167 -148 -53 26 -78 65 -77 119 l1 44 -719 0 -718 0 0 -195 0
-195 -45 0 -45 0 0 -1140 0 -1140 -40 0 -40 0 0 1140 0 1140 -135 0 -135 0 0
-1190 0 -1190 -30 0 -30 0 0 1190 0 1190 -140 0 -140 0 0 -1115 0 -1115 -55 0
-55 0 0 1115 0 1115 -50 0 -50 0 0 -1418 c0 -1397 0 -1419 20 -1437 10 -9 24
-33 30 -51 10 -28 8 -40 -7 -71 -51 -102 -165 -102 -216 0 -16 31 -17 42 -7
72 12 36 61 85 86 85 12 0 14 197 14 1410 l0 1410 -230 0 -230 0 2 -1362 c3
-1354 3 -1363 23 -1367 37 -7 73 -41 91 -86 16 -43 16 -47 0 -90 -22 -57 -65
-88 -121 -88 -51 0 -97 29 -115 73 l-12 30 -694 0 -694 0 0 -95 0 -95 1275 0
1275 0 6 28 c11 51 25 80 57 112 74 76 176 87 262 29 37 -26 85 -94 85 -121 0
-17 74 -18 1820 -18 l1820 0 0 200 0 200 -90 0 -90 0 0 240 0 240 -1155 0
-1155 0 0 55 0 55 1155 0 1155 0 0 95 0 95 -1110 0 -1110 0 0 40 0 40 1110 0
1110 0 0 55 0 55 -1060 0 c-700 0 -1060 3 -1060 10 0 7 360 10 1060 10 l1060
0 0 110 0 110 -1125 0 -1125 0 0 25 0 25 1125 0 1125 0 0 65 0 65 -1230 0
-1230 0 0 25 0 25 1230 0 1230 0 0 50 0 50 -1185 0 -1185 0 0 35 0 35 1185 0
1185 0 0 85 0 85 -1275 0 c-1268 0 -1275 0 -1275 20 0 20 7 20 1275 20 l1275
0 0 50 0 50 -1180 0 -1180 0 0 45 0 45 1180 0 1180 0 0 65 0 65 -1210 0 -1210
0 0 40 0 40 1210 0 1210 0 0 135 0 135 105 0 105 0 0 845 0 845 -147 -2 c-82
-2 -887 -4 -1790 -5z"/>
<path d="M11880 11720 l0 -80 -60 0 -60 0 0 -60 0 -60 540 0 540 0 0 140 0
140 -480 0 -480 0 0 -80z"/>
<path d="M12860 11660 l0 -140 80 0 80 0 0 140 0 140 -80 0 -80 0 0 -140z"/>
<path d="M0 11525 l0 -125 635 0 635 0 0 125 0 125 -635 0 -635 0 0 -125z"/>
<path d="M9440 8215 l0 -3425 40 0 40 0 0 3425 0 3425 -40 0 -40 0 0 -3425z"/>
<path d="M9590 8215 l0 -3425 40 0 40 0 0 3425 0 3425 -40 0 -40 0 0 -3425z"/>
<path d="M9770 8215 l0 -3425 65 0 65 0 0 3425 0 3425 -65 0 -65 0 0 -3425z"/>
<path d="M9980 10570 l0 -1070 860 0 860 0 0 1070 0 1070 -860 0 -860 0 0
-1070z"/>
<path d="M11760 11325 l0 -125 540 0 540 0 0 125 0 125 -540 0 -540 0 0 -125z"/>
<path d="M12860 11325 l0 -125 80 0 80 0 0 125 0 125 -80 0 -80 0 0 -125z"/>
<path d="M0 11240 l0 -110 635 0 635 0 0 110 0 110 -635 0 -635 0 0 -110z"/>
<path d="M11760 11040 l0 -110 540 0 540 0 0 110 0 110 -540 0 -540 0 0 -110z"/>
<path d="M12860 11040 l0 -110 80 0 80 0 0 110 0 110 -80 0 -80 0 0 -110z"/>
<path d="M0 10940 l0 -110 635 0 635 0 0 110 0 110 -635 0 -635 0 0 -110z"/>
<path d="M11760 10740 l0 -110 540 0 540 0 0 110 0 110 -540 0 -540 0 0 -110z"/>
<path d="M12860 10740 l0 -110 80 0 80 0 0 110 0 110 -80 0 -80 0 0 -110z"/>
<path d="M0 10655 l0 -65 270 0 270 0 0 -280 0 -280 -60 0 -60 0 0 -1079 0
-1080 45 -6 c104 -16 187 -108 189 -209 1 -98 -73 -194 -165 -216 -19 -4 270
-8 641 -9 l676 -1 13 35 c6 19 25 44 42 55 l29 21 0 1365 0 1364 -310 0 -310
0 0 225 0 225 -635 0 -635 0 0 -65z"/>
<path d="M11760 10001 l0 -519 43 -7 c114 -19 189 -102 191 -211 1 -105 -83
-203 -188 -218 l-46 -7 0 -405 c0 -367 -1 -405 -16 -402 -24 4 -41 -26 -25
-46 7 -8 19 -12 27 -9 12 4 14 -29 14 -216 0 -240 0 -241 -55 -227 l-25 6 0
663 0 662 -35 28 c-116 93 -100 283 30 355 15 8 -205 11 -837 12 l-858 0 0
-2335 0 -2335 280 0 280 0 0 1658 0 1659 -40 32 c-147 118 -88 350 100 390 95
21 205 -25 252 -105 l20 -34 189 0 189 0 0 -40 0 -40 -180 0 -180 0 -5 -27
c-18 -90 -99 -177 -176 -189 l-39 -7 0 -1648 0 -1649 505 0 505 0 0 953 c1
818 3 949 15 934 7 -11 11 -26 8 -35 -4 -10 -3 -14 1 -10 5 4 19 -4 32 -17
l24 -24 0 -606 0 -605 540 0 540 0 0 516 c0 341 3 513 10 509 6 -4 10 -187 10
-516 l0 -509 245 0 245 0 0 765 0 765 -795 0 c-750 0 -795 -1 -797 -17 0 -10
-2 -23 -2 -30 -1 -6 -12 -21 -26 -33 -13 -12 -25 -31 -26 -43 -3 -33 -12 -79
-19 -85 -3 -3 -5 177 -5 400 0 380 1 406 18 404 25 -2 28 48 4 72 -18 18 -18
19 20 29 l38 10 0 -193 0 -194 795 0 795 0 0 1420 0 1420 -165 0 -165 0 0 225
0 225 -80 0 -80 0 0 -1090 c0 -720 -3 -1090 -10 -1090 -7 0 -10 370 -10 1090
l0 1090 -540 0 -540 0 0 -519z"/>
<path d="M0 8960 l0 -1070 180 0 180 0 0 1070 0 1070 -180 0 -180 0 0 -1070z"/>
<path d="M7350 9210 l0 -540 450 0 450 0 0 540 0 540 -450 0 -450 0 0 -540z"/>
<path d="M7350 8090 l0 -470 -90 0 -90 0 0 -200 0 -200 540 0 540 0 0 670 0
670 -450 0 -450 0 0 -470z"/>
<path d="M8340 6180 l0 -2380 390 0 390 0 0 495 0 495 125 0 125 0 0 1885 0
1885 -515 0 -515 0 0 -2380z"/>
<path d="M0 7640 l0 -210 170 0 c141 0 170 2 170 14 0 8 -13 24 -30 36 -16 12
-42 42 -57 67 -54 92 -25 217 65 278 l37 25 -178 0 -177 0 0 -210z"/>
<path d="M0 7285 l0 -95 170 0 170 0 0 95 0 95 -170 0 -170 0 0 -95z"/>
<path d="M11760 7085 l0 -95 795 0 795 0 0 95 0 95 -795 0 -795 0 0 -95z"/>
<path d="M3372 7117 c-14 -39 -63 -92 -106 -114 -19 -10 -55 -16 -93 -16 l-63
0 0 -1593 0 -1594 2570 0 2570 0 0 1675 0 1675 -165 0 -165 0 0 -1193 0 -1193
44 -12 c49 -13 109 -60 131 -102 32 -61 38 -115 21 -174 -37 -127 -158 -197
-280 -162 -90 27 -142 82 -166 179 -23 90 42 218 126 249 l34 12 0 1198 0
1198 -1085 0 -1085 0 0 -1170 0 -1170 -40 0 -40 0 0 1170 0 1170 -320 0 -320
0 0 -455 0 -455 -35 0 -35 0 0 455 0 455 -743 0 -743 0 -12 -33z"/>
<path d="M0 6345 l0 -765 170 0 170 0 0 159 c0 145 2 159 18 157 25 -2 28 48
4 72 -18 18 -18 19 20 29 l38 10 0 -213 0 -214 1310 0 1310 0 0 727 0 727 -26
38 -27 38 -1283 0 -1284 0 0 -245 c0 -221 -2 -246 -16 -243 -24 4 -41 -26 -25
-46 7 -8 19 -12 27 -9 12 4 14 -29 14 -216 0 -240 0 -241 -55 -227 l-25 6 0
490 0 490 -170 0 -170 0 0 -765z"/>
<path d="M0 4340 l0 -1160 170 0 170 0 0 953 c1 818 3 949 15 934 7 -11 11
-26 8 -35 -4 -10 -3 -14 1 -10 5 4 19 -4 32 -17 l24 -24 0 -901 0 -900 181 0
182 0 -6 -47 c-3 -27 -9 -63 -13 -80 l-6 -33 586 0 586 0 0 60 0 60 331 0 331
0 -4 330 -3 330 228 0 227 0 0 850 0 850 -1310 0 -1310 0 -2 -117 c-1 -150 1
-138 -28 -163 -13 -12 -25 -31 -26 -43 -3 -33 -12 -79 -19 -85 -3 -3 -5 88 -5
201 l0 207 -170 0 -170 0 0 -1160z"/>
<path d="M11760 5045 l0 -255 180 0 180 0 0 -100 0 -100 360 0 360 0 0 355 0
355 -540 0 -540 0 0 -255z"/>
<path d="M12860 4945 l0 -355 245 0 245 0 0 355 0 355 -245 0 -245 0 0 -355z"/>
<path d="M12120 4425 l0 -75 360 0 360 0 0 75 0 75 -360 0 -360 0 0 -75z"/>
<path d="M12860 4425 l0 -75 245 0 245 0 0 75 0 75 -245 0 -245 0 0 -75z"/>
<path d="M12120 4170 l0 -90 360 0 360 0 0 90 0 90 -360 0 -360 0 0 -90z"/>
<path d="M12860 4170 l0 -90 245 0 245 0 0 90 0 90 -245 0 -245 0 0 -90z"/>
<path d="M12120 3658 l0 -333 360 3 360 2 0 330 0 330 -360 0 -360 0 0 -332z"/>
<path d="M12860 3660 l0 -330 245 0 245 0 0 330 0 330 -245 0 -245 0 0 -330z"/>
<path d="M2660 3435 l0 -295 605 0 605 0 0 200 0 200 -25 0 c-21 0 -25 5 -25
30 l0 30 2650 0 2650 0 0 65 0 65 -3230 0 -3230 0 0 -295z"/>
<path d="M3930 3340 l0 -200 525 0 525 0 0 85 0 85 -30 0 c-28 0 -30 2 -30 40
l0 40 2100 0 2100 0 0 75 0 75 -2595 0 -2595 0 0 -200z"/>
<path d="M5070 3225 l0 -85 405 0 405 0 0 -185 0 -185 -830 0 -830 0 0 -1385
0 -1385 2525 0 2525 0 0 1025 0 1025 -75 0 -75 0 0 630 0 630 -2025 0 -2025 0
0 -85z"/>
<path d="M12120 2973 l0 -153 360 0 360 0 0 150 0 150 -360 2 -360 3 0 -152z"/>
<path d="M12860 2970 l0 -150 245 0 245 0 0 150 0 150 -245 0 -245 0 0 -150z"/>
<path d="M780 1660 l0 -1220 -105 0 -105 0 0 -220 0 -220 1175 0 1175 0 0
1385 0 1385 -145 0 -145 0 0 -632 0 -633 37 -20 c23 -12 47 -37 62 -65 90
-163 -86 -339 -249 -249 -142 78 -113 302 43 336 l27 5 0 629 0 629 -215 0
-215 0 0 -653 0 -654 25 -23 c34 -32 49 -89 35 -139 -13 -48 -74 -106 -121
-115 -107 -20 -207 88 -179 193 12 44 78 111 110 111 20 0 20 7 20 640 l0 640
-40 0 -40 0 0 55 0 55 -575 0 -575 0 0 -1220z"/>
<path d="M3020 1385 l0 -1385 70 0 70 0 0 1385 0 1385 -70 0 -70 0 0 -1385z"/>
<path d="M3260 1385 l0 -1385 100 0 100 0 0 1385 0 1385 -100 0 -100 0 0
-1385z"/>
<path d="M3560 1385 l0 -1385 130 0 130 0 0 1385 0 1385 -130 0 -130 0 0
-1385z"/>
<path d="M3900 1385 l0 -1385 105 0 105 0 0 1385 0 1385 -105 0 -105 0 0
-1385z"/>
<path d="M12120 2365 l0 -315 -105 0 -105 0 0 -1025 0 -1025 465 0 465 0 0
1340 0 1340 -360 0 -360 0 0 -315z"/>
<path d="M12860 1340 l0 -1340 245 0 245 0 0 1340 0 1340 -245 0 -245 0 0
-1340z"/>
<path d="M9380 1025 l0 -1025 85 0 85 0 0 1025 0 1025 -85 0 -85 0 0 -1025z"/>
<path d="M9680 1025 l0 -1025 50 0 50 0 0 1025 0 1025 -50 0 -50 0 0 -1025z"/>
<path d="M9840 1025 l0 -1025 150 0 150 0 0 1025 0 1025 -150 0 -150 0 0
-1025z"/>
<path d="M10290 1025 l0 -1025 90 0 90 0 0 1025 0 1025 -90 0 -90 0 0 -1025z"/>
<path d="M10610 1025 l0 -1025 85 0 85 0 0 1025 0 1025 -85 0 -85 0 0 -1025z"/>
<path d="M10920 1025 l0 -1025 90 0 90 0 0 1025 0 1025 -90 0 -90 0 0 -1025z"/>
<path d="M11190 1025 l0 -1025 90 0 90 0 0 1025 0 1025 -90 0 -90 0 0 -1025z"/>
<path d="M11460 1025 l0 -1025 150 0 150 0 0 1025 0 1025 -150 0 -150 0 0
-1025z"/>
<path d="M120 220 l0 -220 150 0 150 0 0 220 0 220 -150 0 -150 0 0 -220z"/>
</g>
</svg>
